<svg xmlns="http://www.w3.org/2000/svg" viewBox="0 0 48 48" fill="none">
  <defs>
    <linearGradient id="grad" x1="6" y1="4" x2="42" y2="44" gradientUnits="userSpaceOnUse">
      <stop stop-color="#1a5fb4"/>
      <stop offset="1" stop-color="#1247a0"/>
    </linearGradient>
  </defs>
  <rect width="48" height="48" rx="12" fill="url(#grad)"/>
  <circle cx="24" cy="16.5" r="4.75" fill="white"/>
  <path d="M19.2 22.2C20.4 21.1 22 20.5 24 20.5C26 20.5 27.6 21.1 28.8 22.2" stroke="white" stroke-width="2" stroke-linecap="round"/>
  <path d="M11.5 31.5C11.5 24.5 15.8 20 20.8 21.5C22.4 22 23.6 23.2 24 24.2C24.4 23.2 25.6 22 27.2 21.5C32.2 20 36.5 24.5 36.5 31.5" stroke="white" stroke-width="2.4" stroke-linecap="round" stroke-linejoin="round"/>
  <path d="M13.5 30.5C17.2 34.5 21.5 36 24 36C26.5 36 30.8 34.5 34.5 30.5" stroke="#4fd4a5" stroke-width="2" stroke-linecap="round"/>
  <circle cx="24" cy="28.5" r="1.6" fill="#1a9d6c"/>
</svg>
